<?xml version="1.0" encoding="UTF-8"?>
<svg version="1.1" xmlns="http://www.w3.org/2000/svg" width="347" height="345">
<path d="M0 0 C114.51 0 229.02 0 347 0 C347 113.85 347 227.7 347 345 C232.49 345 117.98 345 0 345 C0 231.15 0 117.3 0 0 Z " fill="#FDFDFD" transform="translate(0,0)"/>
<path d="M0 0 C22.28173194 -0.41009323 40.78291926 1.27791598 57.58007812 17.31860352 C69.559944 29.35613645 74.62150195 43.71560576 74.66653442 60.40127563 C74.65522361 62.08661231 74.6433964 63.77194559 74.63110352 65.45727539 C74.63625364 67.27074378 74.64354309 69.08420715 74.65278625 70.8976593 C74.67116806 75.78203664 74.65844642 80.66586218 74.63869596 85.55021596 C74.62220064 90.68504837 74.63113727 95.81984881 74.63621521 100.95469666 C74.64072366 109.57315797 74.62494294 118.19140136 74.59692383 126.80981445 C74.56486752 136.74607673 74.5648958 146.68194642 74.5821386 156.6182366 C74.59805112 166.21416798 74.59124044 175.80995667 74.57420158 185.40588188 C74.56736422 189.47295411 74.56832923 193.53991081 74.57574654 197.60698128 C74.58345809 202.40317292 74.57112569 207.19892249 74.54389763 211.99503899 C74.53706386 213.7456519 74.53686139 215.4963065 74.54411316 217.24691772 C74.61108272 235.53286095 70.38833561 251.04573339 57.4765625 264.6484375 C42.26841977 279.08897681 25.99762632 282.32193175 5.73046875 282.30078125 C4.1616454 282.30467869 2.59282308 282.30901548 1.02400208 282.31376648 C-2.25136751 282.32118996 -5.52662924 282.3209661 -8.80200195 282.31567383 C-12.96401167 282.30988974 -17.12557483 282.32680334 -21.28751087 282.3500185 C-24.52465828 282.36487416 -27.76170111 282.36561153 -30.99887657 282.36250877 C-32.53161184 282.36301624 -34.06435387 282.36814377 -35.59705544 282.37832069 C-54.33432157 282.48747509 -69.83973362 278.73852624 -83.71875 265.4453125 C-97.24098636 250.95058654 -101.33531129 236.44321415 -101.1953125 217.125 C-101.1923667 215.7630225 -101.19032957 214.40104273 -101.18920898 213.0390625 C-101.1787839 208.02600682 -101.15086144 203.01299982 -101.125 198 C-101.08375 186.78 -101.0425 175.56 -101 164 C-71.96 164 -42.92 164 -13 164 C-13 194.36 -13 224.72 -13 256 C14.28444426 257.03339418 14.28444426 257.03339418 38 246 C46.98437922 234.38325489 47.2968563 223.34610502 47.25878906 209.30029297 C47.2615026 207.61576181 47.26506557 205.93123184 47.26940918 204.2467041 C47.27849085 199.69316341 47.27500678 195.13971382 47.26865101 190.58617163 C47.26357077 185.81152452 47.26828792 181.03688497 47.27142334 176.26223755 C47.27505638 168.24789028 47.27028052 160.23357994 47.26074219 152.21923828 C47.24985149 142.96185694 47.25339035 133.70456366 47.264395 124.44718444 C47.27347786 116.48686689 47.27474848 108.5265758 47.26951766 100.56625473 C47.26640442 95.8170624 47.26597102 91.06791143 47.27259064 86.31872177 C47.27837826 81.85515987 47.27434128 77.39171131 47.26280212 72.92816162 C47.26016344 71.29273797 47.26090709 69.65730473 47.26532745 68.02188492 C47.27081552 65.78479713 47.26390971 63.54806965 47.25396729 61.31100464 C47.25321323 60.06075941 47.25245918 58.81051418 47.25168228 57.52238274 C46.63649417 48.91260709 43.14478375 42.64132855 37.625 36.25 C31.78136284 31.24116815 25.24563199 27.8462223 17.48046875 27.5859375 C16.55903076 27.55032715 15.63759277 27.5147168 14.68823242 27.47802734 C13.53299072 27.44402832 12.37774902 27.4100293 11.1875 27.375 C7.495625 27.25125 3.80375 27.1275 0 27 C0 18.09 0 9.18 0 0 Z " fill="#242021" transform="translate(226,34)"/>
<path d="M0 0 C1.55592105 -0.0071296 3.11183956 -0.01483248 4.66775513 -0.02307129 C7.90667048 -0.03640656 11.1453425 -0.03813456 14.38427734 -0.03222656 C18.48788223 -0.02633612 22.59030172 -0.05694573 26.6936779 -0.09734344 C29.90095047 -0.12347869 33.1079471 -0.12607491 36.31531143 -0.12245178 C37.82605087 -0.12411854 39.33680662 -0.13351824 40.84743881 -0.15159607 C59.69197694 -0.3523886 75.28622656 5.12990524 89.1953125 18.19140625 C100.89330576 30.03156262 105.71392161 43.71148221 105.67163086 60.10644531 C105.66156403 61.59179872 105.65123114 63.07715035 105.640625 64.5625 C105.63767931 65.9443343 105.63564211 67.32617083 105.63452148 68.70800781 C105.6240951 73.79495622 105.59617263 78.88185664 105.5703125 83.96875 C105.5290625 95.35375 105.4878125 106.73875 105.4453125 118.46875 C76.4053125 118.46875 47.3653125 118.46875 17.4453125 118.46875 C17.4453125 88.10875 17.4453125 57.74875 17.4453125 26.46875 C-10.9710672 25.56137617 -10.9710672 25.56137617 -34.5546875 37.46875 C-40.29257978 44.85450804 -42.80300916 52.41908902 -42.80865479 61.77975464 C-42.81177477 62.48175653 -42.81489475 63.18375841 -42.81810927 63.90703309 C-42.82603765 66.24133209 -42.81978593 68.57536738 -42.81347656 70.90966797 C-42.81618877 72.59065909 -42.81975099 74.27164903 -42.82409668 75.95263672 C-42.833197 80.50643004 -42.82968577 85.0601325 -42.82333851 89.61392736 C-42.81826465 94.38765038 -42.82297397 99.16136578 -42.82611084 103.93508911 C-42.82974715 111.95299674 -42.82496091 119.9708675 -42.81542969 127.98876953 C-42.80455321 137.24493331 -42.80806621 146.50100892 -42.8190825 155.75717056 C-42.82817379 163.71578056 -42.82943142 171.67436409 -42.82420516 179.6329776 C-42.82109463 184.38114562 -42.82065071 189.12927227 -42.82727814 193.87743759 C-42.83307751 198.3442622 -42.82900744 202.81097379 -42.81748962 207.27778625 C-42.81485654 208.91236814 -42.81558489 210.54695962 -42.82001495 212.18153763 C-42.85014348 224.43263364 -42.61513282 235.47973188 -34.5546875 245.46875 C-28.33368345 250.86360471 -22.16041837 254.61509019 -13.81640625 254.8828125 C-12.85436279 254.91842285 -11.89231934 254.9540332 -10.90112305 254.99072266 C-9.69367432 255.02472168 -8.48622559 255.0587207 -7.2421875 255.09375 C-3.3853125 255.2175 0.4715625 255.34125 4.4453125 255.46875 C4.4453125 264.37875 4.4453125 273.28875 4.4453125 282.46875 C-18.7232898 283.12694893 -35.73584481 281.33269672 -53.23828125 264.87109375 C-63.40936949 254.32266328 -69.70576603 240.64700481 -69.70185852 225.96960449 C-69.70553521 225.22313109 -69.7092119 224.47665769 -69.713 223.70756388 C-69.7239973 221.2106345 -69.72787399 218.7137468 -69.73168945 216.21679688 C-69.73795723 214.42436594 -69.74460431 212.63193629 -69.75160217 210.83950806 C-69.77261265 204.95551452 -69.78300375 199.07152082 -69.79296875 193.1875 C-69.79701784 191.15802497 -69.80113481 189.12855007 -69.80531883 187.09907532 C-69.82436619 177.56030195 -69.83859654 168.02153628 -69.8469308 158.48274755 C-69.85669303 147.49251816 -69.88298802 136.50249072 -69.92343169 125.51233244 C-69.95365747 117.00509078 -69.96840591 108.49790679 -69.97171181 99.99061251 C-69.97405547 94.91580517 -69.98292623 89.84121369 -70.00817299 84.76646423 C-70.03157112 79.98605448 -70.03564003 75.20600088 -70.02541161 70.42554855 C-70.02491893 68.67975551 -70.03115933 66.93394422 -70.04496765 65.18820572 C-70.18461657 46.47176744 -65.79208569 30.88930061 -52.45703125 17.23828125 C-37.75947083 2.84356189 -19.78484196 -0.01123937 0 0 Z " fill="#242021" transform="translate(107.5546875,33.53125)"/>
<path d="M0 0 C11.54195182 0 18.17664113 1.73577849 27.0234375 9.00390625 C30.22017439 12.23223145 32.18258653 15.86885132 34 20 C34.34603271 20.68006104 34.69206543 21.36012207 35.04858398 22.06079102 C36.37434611 26.15646722 36.24730474 29.96134873 36.1953125 34.23828125 C36.1924826 35.11904831 36.18965271 35.99981537 36.18673706 36.90727234 C36.17557833 39.70915545 36.15048171 42.51071416 36.125 45.3125 C36.11496463 47.21679225 36.10583975 49.12108952 36.09765625 51.02539062 C36.07735809 55.68381806 36.03820143 60.34154762 36 65 C24.12 65 12.24 65 0 65 C0 43.55 0 22.1 0 0 Z " fill="#FAF9FA" transform="translate(151,61)"/>
<path d="M0 0 C11.88 0 23.76 0 36 0 C36 21.45 36 42.9 36 65 C24.13866004 65 16.50693515 63.06018145 8 55 C1.75748153 47.33062016 -0.48470113 38.52596482 -0.29296875 28.80859375 C-0.28872391 27.97787857 -0.28447906 27.14716339 -0.28010559 26.29127502 C-0.26349314 23.67300118 -0.2258763 21.05553585 -0.1875 18.4375 C-0.17243053 16.64779768 -0.15874612 14.85808313 -0.14648438 13.06835938 C-0.1162157 8.71168773 -0.05746547 4.35673431 0 0 Z " fill="#FAF9FA" transform="translate(151,224)"/>
<path d="M0 0 C1.32 0.33 2.64 0.66 4 1 C2.19587357 4.26460973 1.16605307 5.88929795 -2 8 C-1.125 2.25 -1.125 2.25 0 0 Z " fill="#2E2C2D" transform="translate(285,290)"/>
<path d="M0 0 C1.98 0 3.96 0 6 0 C6 1.65 6 3.3 6 5 C1.125 2.25 1.125 2.25 0 0 Z " fill="#312D2E" transform="translate(144,300)"/>
</svg>
